<?xml version="1.0" encoding="utf-8"?>
<!-- Generator: Adobe Illustrator 22.1.0, SVG Export Plug-In . SVG Version: 6.00 Build 0)  -->
<svg version="1.1" id="Слой_1" xmlns="http://www.w3.org/2000/svg" xmlns:xlink="http://www.w3.org/1999/xlink" x="0px" y="0px"
	 viewBox="0 0 45 45.1" style="enable-background:new 0 0 45 45.1;" xml:space="preserve">
<style type="text/css">
	.st0{fill:url(#SVGID_1_);}
</style>
<linearGradient id="SVGID_1_" gradientUnits="userSpaceOnUse" x1="0" y1="22.53" x2="45.0601" y2="22.53">
	<stop  offset="0" style="stop-color:#FF4148"/>
	<stop  offset="1" style="stop-color:#FF793A"/>
</linearGradient>
<path class="st0" d="M45,21.2c-0.1-4.4-1.6-10.7-7.8-15.7c-2.1-1.8-4.4-3.2-7-4.1c-0.1,0-0.2-0.1-0.4-0.2c-0.1,0-0.2-0.1-0.3-0.1
	C27.3,0.4,24.9,0,22.5,0c-1.3,0-2.6,0.1-3.9,0.3c-2.3,0.4-4.5,1.1-6.6,2.3C4.6,6.5,0,14.2,0,22.5c0,9.6,6,17.8,14.5,21.1
	c0,0,0.1,0,0.1,0c0,0,0.1,0,0.2,0.1c2.4,0.9,5,1.4,7.8,1.4c3.2,0,6.3-0.7,9.1-1.9c0.1,0,0.2-0.1,0.3-0.1c0,0,0.1,0,0.1-0.1
	c7.7-3.6,13.1-11.4,13.1-20.4C45.1,22.1,45,21.6,45,21.2z M12.6,3.7c2-1,4.1-1.8,6.3-2.1c0.3,0.1,1.1,1,1.3,2c0.1,0.3,0.1,0.8-0.2,1
	c-0.1,0-0.3,0.1-0.8,0.1c-0.2,0-0.5,0-0.7,0c-0.4,0-0.8,0-1.1,0c-0.9,0.1-1.5,0.6-2,1C15.3,5.8,15.2,5.9,15,6
	c-0.3,0.2-0.6,0.5-0.8,0.7c-0.4,0.4-0.8,0.7-1.2,1c-0.1,0.1-0.3,0.2-0.4,0.3c-0.4,0.2-0.9,0.5-1.1,1.3c-0.1,0.2-0.1,0.4-0.1,0.6
	c0,0.1,0,0.2,0,0.3c-0.1,0-0.2,0-0.4,0c-0.2,0-0.4-0.2-0.7-0.3C10,9.7,9.6,9.5,9,9.5c-1.1,0-2.1,0.8-2.3,1.8c-0.1,0.5,0,0.9,0.2,1.3
	c0.4,0.5,1.2,0.5,1.7,0.5h0.1c0.1,0.7,0.3,1.3,0.7,1.7c0.5,0.6,1.3,0.7,2.1,0.5c0.3-0.1,0.5-0.2,0.7-0.3c0.3-0.1,0.5-0.2,1-0.2
	c0.6,0,1-0.2,1.4-0.3c0.2-0.1,0.3-0.2,0.5-0.2c0.4-0.1,0.6,0.1,1.1,0.7c0.3,0.5,0.8,1.1,1.5,1.3c0.3,0.1,0.7,0,1,0
	c0.1,0,0.3,0,0.4,0c0.1,0,0.2,0,0.3,0.1c0.2,0.1,0.4,0.6,0.6,0.9c0.1,0.2,0.3,0.5,0.4,0.7c0.1,0.1,0.1,0.2,0.2,0.3
	c0.3,0.4,0.6,0.8,1,1.2c0.6,0.5,1.2,0.5,1.6,0.5c0.2,0,0.4,0,0.6,0.1c0.4,0.1,0.9,0.5,1,0.7c0.1,0.3,0,0.5-0.5,0.9
	c-0.1,0.1-0.2,0.2-0.3,0.3c-0.6,0.7-0.6,1.7-0.6,2.6c0,0.5,0,1.2-0.2,1.4c-0.1,0.1-0.5,0.2-0.8,0.3c-0.3,0.1-0.6,0.2-0.9,0.3
	c-0.8,0.4-1.3,1-1.5,1.7c-0.1,0.3-0.2,0.5-0.2,0.7c-0.1,0.4-0.2,0.6-0.4,0.9c0,0,0,0-0.1,0c-0.1,0.1-0.4,0.2-0.6,0.5
	c-0.2,0.3-0.2,0.5-0.2,0.8V31c-0.1,0.1-0.2,0.1-0.4,0.2c-0.3,0.2-0.7,0.3-0.9,0.8c-0.3,0.5-0.6,1.4-0.4,2.3c0,0.2,0.1,0.4,0.2,0.6
	c0.1,0.4,0.4,1.2,0.2,1.4c-0.1,0.1-0.3,0.1-0.4,0.1c-0.1,0-0.1,0-0.2,0c-0.6,0-0.8-0.6-1.1-1.9c-0.1-0.4-0.2-0.8-0.3-1.2
	c-0.2-0.5-0.5-0.9-0.7-1.2c-0.3-0.5-0.6-0.9-0.7-1.4c-0.1-0.6-0.1-1.3,0-1.9c0-0.2,0.1-0.3,0.2-0.5c0.2-0.5,0.4-1.1,0.2-1.6
	c-0.2-0.8-0.9-1.2-1.5-1.7c-0.5-0.3-0.9-0.7-1.1-1c-0.1-0.2-0.2-0.4-0.2-0.5c-0.2-0.4-0.3-0.7-0.6-1.2c-0.1-0.2-0.3-0.4-0.4-0.5
	c-0.3-0.3-0.5-0.6-0.7-0.9c-0.2-0.4-0.3-1.1-0.2-1.5c0.1-0.1,0.2-0.3,0.3-0.5c0.3-0.4,0.7-0.9,0.6-1.6c0-0.2-0.2-0.4-0.4-0.5
	c-0.8-0.2-1-0.3-1.5-0.9C7.7,15,7.1,15,6.4,15c-0.2,0-0.4,0-0.6-0.1c-0.4,0-0.4-0.1-0.5-0.6c-0.1-0.2-0.1-0.4-0.2-0.6
	c-0.3-0.6-0.7-1.1-1.1-1.5C4.7,10.8,7.6,6.4,12.6,3.7z M22.7,43.7c-3.5,0-6.3-0.7-7.3-1c0-1.2,0.2-1.6,1.3-2c0.8-0.3,1-0.6,1.3-1
	c0.1-0.1,0.2-0.3,0.3-0.4c0.3-0.4,0.7-0.5,1-0.4c0.1,0,0.2,0.1,0.1,0.8l0,0.1c0,0.1,0,0.3-0.1,0.3c-0.1,0.3-0.1,0.7,0.1,1
	c0.2,0.3,0.7,0.4,1.1,0.4c1.6,0.1,2.8-0.5,4-1.1c0.6-0.3,1-0.2,1.6,0c0.8,0.3,1.5,0.4,2.4,0.4c0.1,0,0.3,0,0.4,0c0.1,0,0.2,0,0.4,0
	c0.5,0,0.7,0.1,0.9,0.3c0.1,0.1,0.2,0.2,0.2,0.3c0.2,0.2,0.5,0.5,0.6,0.8C28.5,43.1,25.7,43.7,22.7,43.7z M32.2,41.6
	c-0.2-0.3-0.5-0.7-0.8-1c-0.1-0.1-0.2-0.2-0.2-0.2c-0.6-0.6-1.2-0.7-1.8-0.7c-0.1,0-0.3,0-0.4,0c-0.1,0-0.3,0-0.4,0
	c-0.8,0-1.3,0-2-0.3c-0.5-0.2-0.9-0.3-1.4-0.3c-0.4,0-0.8,0.1-1.3,0.4c-1.1,0.6-2,1.1-3.3,1c0,0-0.1,0-0.1,0c0-0.1,0.1-0.2,0.1-0.3
	l0,0c0.1-0.6,0.3-1.8-0.9-2.1c-0.8-0.3-1.7,0.1-2.3,0.8c-0.2,0.2-0.3,0.4-0.4,0.5c-0.2,0.3-0.3,0.4-0.7,0.5c-1.6,0.6-2,1.4-2.1,2.7
	c-7.6-3.2-13-10.8-13-19.7c0-3.3,0.8-6.5,2.1-9.3c0.3,0.3,0.5,0.6,0.7,1c0.1,0.2,0.1,0.3,0.2,0.5c0.2,0.6,0.4,1.3,1.5,1.4
	c0.3,0,0.5,0.1,0.7,0.1c0.6,0,0.7,0,1.1,0.5c0.6,0.7,1,1,1.6,1.2C9,17.9,9,18,8.9,18.1c-0.2,0.2-0.4,0.5-0.5,0.9
	c-0.2,0.8,0,1.9,0.3,2.4c0.2,0.5,0.5,0.8,0.9,1.2c0.1,0.2,0.3,0.3,0.4,0.5c0.2,0.3,0.3,0.5,0.5,0.9c0.1,0.2,0.1,0.4,0.3,0.6
	c0.3,0.7,0.9,1.1,1.5,1.5c0.5,0.3,0.9,0.7,1,1c0.1,0.2-0.1,0.6-0.2,0.9c-0.1,0.2-0.2,0.5-0.2,0.7c-0.1,0.7-0.1,1.5,0,2.2
	c0.1,0.8,0.5,1.4,0.9,1.9c0.2,0.3,0.5,0.6,0.6,1c0.1,0.2,0.2,0.6,0.2,0.9c0.1,0.6,0.2,1.3,0.6,1.9c0.3,0.6,0.8,1,1.7,1
	c0.1,0,0.2,0,0.3,0c0.6-0.1,1-0.3,1.2-0.7c0.5-0.7,0.1-1.7-0.1-2.5C18,34.3,18,34.1,17.9,34c-0.1-0.4,0-1,0.3-1.4
	c0.1-0.1,0.2-0.2,0.5-0.3c0.3-0.1,0.6-0.3,0.8-0.6c0.2-0.3,0.2-0.6,0.2-0.9c0,0,0-0.1,0-0.2c0,0,0,0,0,0c0.1,0,0.3-0.1,0.4-0.3
	c0.5-0.5,0.6-1,0.7-1.4c0-0.2,0.1-0.4,0.2-0.5c0.2-0.5,0.7-0.9,1-1.1c0.1-0.1,0.4-0.2,0.6-0.2c0.4-0.1,0.9-0.3,1.2-0.6
	c0.6-0.5,0.6-1.4,0.6-2.3c0-0.7,0-1.4,0.3-1.8c0.1-0.1,0.2-0.2,0.3-0.3c0.4-0.4,1.1-1.2,0.7-2.2c-0.3-0.7-1.3-1.2-1.9-1.3
	c-0.3-0.1-0.6-0.1-0.8-0.1c-0.4,0-0.7,0-0.9-0.2s-0.5-0.6-0.7-0.9c-0.1-0.1-0.2-0.2-0.2-0.3c-0.1-0.1-0.2-0.3-0.3-0.6
	c-0.3-0.5-0.5-1-0.9-1.3c-0.3-0.2-0.6-0.3-1-0.3c-0.2,0-0.4,0-0.5,0.1c-0.2,0-0.4,0.1-0.6,0c-0.3,0-0.5-0.4-0.8-0.8
	c-0.4-0.6-0.9-1.3-1.8-1.3c-0.2,0-0.4,0-0.6,0.1c-0.3,0.1-0.5,0.2-0.7,0.3c-0.3,0.2-0.5,0.2-0.9,0.2c-0.7,0-1.1,0.2-1.4,0.4
	c-0.2,0.1-0.3,0.2-0.6,0.2c-0.4,0.1-0.7,0.1-0.9-0.1c-0.3-0.3-0.4-0.8-0.4-1.4c0-0.2,0-0.3-0.2-0.4C9.6,12,9.4,12,9.3,12
	c-0.1,0-0.2,0-0.4,0H8.6c-0.5,0-0.7-0.1-0.8-0.1c0,0,0-0.1,0-0.3C8,11.1,8.5,10.7,9,10.7c0.3,0,0.4,0.1,0.7,0.3
	c0.3,0.2,0.6,0.4,1.1,0.4c0.2,0,0.3,0,0.4,0c1.2,0,1.3-0.9,1.3-1.4c0-0.2,0-0.3,0.1-0.5c0.1-0.3,0.1-0.3,0.5-0.5
	c0.2-0.1,0.3-0.2,0.6-0.3C14.2,8.4,14.6,8,15,7.6c0.3-0.2,0.5-0.5,0.8-0.7c0.1-0.1,0.3-0.2,0.4-0.3c0.5-0.4,0.8-0.7,1.3-0.8
	c0.2,0,0.6,0,0.9,0c0.3,0,0.5,0,0.8,0c0.5,0,1.1,0,1.5-0.4C21.4,5,21.6,4,21.2,2.9c-0.2-0.5-0.5-1.1-0.9-1.6C23,1,25.6,1.3,28.2,1.9
	c-0.3,0.4-0.5,0.9-0.6,1.4c-0.2,1,0.2,1.8,1,2.2c0.2,0.1,0.4,0.1,0.7,0.1c0.2,0,0.3,0,0.5,0c0.3,0,0.5,0,0.6,0
	c0.2,0.1,0.3,0.1,0.3,0.6c0,0.1,0.1,0.3,0.1,0.5c0.1,0.6,0.4,1.1,0.7,1.5c0.3,0.5,0.6,0.9,0.6,1.4c0,0.5-0.2,0.9-0.5,1.3
	c-0.1,0.2-0.2,0.4-0.3,0.6c-0.4,0.7-0.4,1.3-0.4,2.1v0.1c0,0.8,0,1.4,0.8,2c0.6,0.5,0.7,0.7,1.1,1.4c0.9,1.7,2.3,1.9,3.7,1.9
	c1.5,0.1,1.7,0.3,2,1.6c0.2,1,0.4,2.5-0.3,3.7c-0.7,1.3-0.9,2-0.9,3.5c0,0.2,0,0.4,0,0.7c0,0.4,0,0.9,0,1.2c0,0.4-0.2,0.7-0.4,1
	c-0.1,0.2-0.2,0.3-0.3,0.5c-0.3,0.8-0.2,1.4,0,1.7c0.2,0.4,0.7,0.6,1.2,0.6c0.5,0,1-0.2,1.5-0.5c0.9-0.6,1.8-1.3,2.6-2.1
	C40.1,35.6,36.6,39.3,32.2,41.6z M42.9,28.3c-0.5,0.8-1,1.3-1.5,1.8c-0.8,0.8-1.8,1.5-2.6,2.1c-0.3,0.2-0.6,0.3-0.8,0.3
	c-0.1,0-0.2,0-0.2,0c0,0,0-0.2,0.1-0.5c0.1-0.2,0.1-0.3,0.2-0.5c0.2-0.4,0.4-0.8,0.5-1.4c0-0.5,0-0.9,0-1.4c0-0.2,0-0.4,0-0.6
	c0-1.3,0.2-1.9,0.8-3c0.8-1.5,0.6-3.3,0.4-4.5c-0.4-2.1-1.3-2.5-3.1-2.6c-1.4-0.1-2.2-0.3-2.7-1.3c-0.5-0.9-0.7-1.2-1.4-1.7
	c-0.4-0.3-0.4-0.4-0.4-1.1v-0.1c0-0.7,0-1,0.3-1.5c0.1-0.2,0.2-0.3,0.3-0.5c0.3-0.6,0.7-1.1,0.7-2c0-0.8-0.4-1.4-0.7-2
	c-0.2-0.4-0.5-0.8-0.6-1.2c0-0.1,0-0.3-0.1-0.4c-0.1-0.5-0.2-1.3-1.2-1.6c-0.2-0.1-0.4-0.1-0.6-0.1c-0.2,0-0.3,0-0.5,0
	c-0.3,0-0.5,0-0.7,0c-0.1,0-0.3-0.1-0.3-0.7c0.1-0.7,0.5-1.3,0.7-1.4c0.1,0.1,0.3,0.1,0.4,0.1c2.5,1.1,4.8,2.4,6.6,3.9
	c4.4,3.8,7,9.1,7.4,14.8C43.9,24.9,43.1,27.8,42.9,28.3z"/>
</svg>
