<?xml version="1.0" encoding="utf-8"?>
<!-- Generator: Adobe Illustrator 22.1.0, SVG Export Plug-In . SVG Version: 6.00 Build 0)  -->
<svg version="1.1" id="Слой_1" xmlns="http://www.w3.org/2000/svg" xmlns:xlink="http://www.w3.org/1999/xlink" x="0px" y="0px"
	 viewBox="0 0 45.5 45.5" style="enable-background:new 0 0 45.5 45.5;" xml:space="preserve">
<style type="text/css">
	.st0{fill:url(#SVGID_1_);}
	.st1{fill:url(#SVGID_2_);}
	.st2{fill:url(#SVGID_3_);}
	.st3{fill:url(#SVGID_4_);}
	.st4{fill:url(#SVGID_5_);}
	.st5{fill:url(#SVGID_6_);}
	.st6{fill:url(#SVGID_7_);}
	.st7{fill:url(#SVGID_8_);}
	.st8{fill:url(#SVGID_9_);}
</style>
<g>
	<linearGradient id="SVGID_1_" gradientUnits="userSpaceOnUse" x1="2.183050e-02" y1="22.7637" x2="45.5492" y2="22.7637">
		<stop  offset="0" style="stop-color:#FF4148"/>
		<stop  offset="1" style="stop-color:#FF793A"/>
	</linearGradient>
	<path class="st0" d="M44,0.4c-0.4-0.3-1-0.4-1.5-0.4H3.1C2.5,0,2,0.1,1.5,0.4C0.6,0.9,0,1.9,0,3v35.7v3.8c0,1.7,1.4,3,3,3h39.5
		c1.7,0,3-1.4,3-3v-3.8V3C45.5,1.9,44.9,0.9,44,0.4z M44,42.5c0,0.8-0.7,1.5-1.5,1.5H3.1c-0.8,0-1.5-0.7-1.5-1.5v-1.2
		c0.4,0.3,1,0.4,1.5,0.4h39.5c0.6,0,1.1-0.1,1.5-0.4V42.5z M44,38.7c0,0.8-0.7,1.5-1.5,1.5H3.1c-0.8,0-1.5-0.7-1.5-1.5V3
		c0-0.8,0.7-1.5,1.5-1.5h39.5C43.4,1.5,44,2.2,44,3V38.7z"/>
	<linearGradient id="SVGID_2_" gradientUnits="userSpaceOnUse" x1="9.9678" y1="14.0028" x2="12.1742" y2="14.0028">
		<stop  offset="0" style="stop-color:#FF4148"/>
		<stop  offset="1" style="stop-color:#FF793A"/>
	</linearGradient>
	<path class="st1" d="M11.1,12.9c-0.6,0-1.1,0.5-1.1,1.1c0,0.6,0.5,1.1,1.1,1.1s1.1-0.5,1.1-1.1C12.2,13.4,11.7,12.9,11.1,12.9z"/>
	<linearGradient id="SVGID_3_" gradientUnits="userSpaceOnUse" x1="17.439" y1="16.2091" x2="19.6454" y2="16.2091">
		<stop  offset="0" style="stop-color:#FF4148"/>
		<stop  offset="1" style="stop-color:#FF793A"/>
	</linearGradient>
	<path class="st2" d="M19.6,16.2c0-0.6-0.5-1.1-1.1-1.1s-1.1,0.5-1.1,1.1c0,0.6,0.5,1.1,1.1,1.1S19.6,16.8,19.6,16.2z"/>
	<linearGradient id="SVGID_4_" gradientUnits="userSpaceOnUse" x1="33.0933" y1="13.3461" x2="35.2995" y2="13.3461">
		<stop  offset="0" style="stop-color:#FF4148"/>
		<stop  offset="1" style="stop-color:#FF793A"/>
	</linearGradient>
	<path class="st3" d="M34.2,14.4c0.6,0,1.1-0.5,1.1-1.1c0-0.6-0.5-1.1-1.1-1.1c-0.6,0-1.1,0.5-1.1,1.1C33.1,14,33.6,14.4,34.2,14.4z
		"/>
	<linearGradient id="SVGID_5_" gradientUnits="userSpaceOnUse" x1="12.1742" y1="20.0502" x2="14.3805" y2="20.0502">
		<stop  offset="0" style="stop-color:#FF4148"/>
		<stop  offset="1" style="stop-color:#FF793A"/>
	</linearGradient>
	<path class="st4" d="M13.3,21.2c0.6,0,1.1-0.5,1.1-1.1c0-0.6-0.5-1.1-1.1-1.1c-0.6,0-1.1,0.5-1.1,1.1
		C12.2,20.7,12.7,21.2,13.3,21.2z"/>
	<linearGradient id="SVGID_6_" gradientUnits="userSpaceOnUse" x1="15.7231" y1="25.0466" x2="17.9293" y2="25.0466">
		<stop  offset="0" style="stop-color:#FF4148"/>
		<stop  offset="1" style="stop-color:#FF793A"/>
	</linearGradient>
	<circle class="st5" cx="16.8" cy="25" r="1.1"/>
	<linearGradient id="SVGID_7_" gradientUnits="userSpaceOnUse" x1="9.9678" y1="28.5305" x2="12.1742" y2="28.5305">
		<stop  offset="0" style="stop-color:#FF4148"/>
		<stop  offset="1" style="stop-color:#FF793A"/>
	</linearGradient>
	<circle class="st6" cx="11.1" cy="28.5" r="1.1"/>
	<linearGradient id="SVGID_8_" gradientUnits="userSpaceOnUse" x1="23.8322" y1="17.2925" x2="31.9624" y2="17.2925">
		<stop  offset="0" style="stop-color:#FF4148"/>
		<stop  offset="1" style="stop-color:#FF793A"/>
	</linearGradient>
	<path class="st7" d="M26.2,29.1h3.4c1.3,0,2.4-1.1,2.4-2.4v-5.7h-3.5v-14h3.4V5.5h-8v1.4h3.4v14h-3.5v5.7
		C23.8,28,24.9,29.1,26.2,29.1z M24.9,22h5.9v4.6c0,0.7-0.6,1.3-1.3,1.3h-3.4c-0.7,0-1.3-0.6-1.3-1.3V22z"/>
	<linearGradient id="SVGID_9_" gradientUnits="userSpaceOnUse" x1="5.5163" y1="21.0733" x2="40.0514" y2="21.0733">
		<stop  offset="0" style="stop-color:#FF4148"/>
		<stop  offset="1" style="stop-color:#FF793A"/>
	</linearGradient>
	<polygon class="st8" points="34.4,6.9 38.6,6.9 38.6,35.2 6.9,35.2 6.9,6.9 21.4,6.9 21.4,5.5 5.5,5.5 5.5,36.6 40.1,36.6 
		40.1,5.5 34.4,5.5 	"/>
</g>
</svg>
