<?xml version="1.0" encoding="utf-8"?>
<!-- Generator: Adobe Illustrator 22.1.0, SVG Export Plug-In . SVG Version: 6.00 Build 0)  -->
<svg version="1.1" id="Слой_1" xmlns="http://www.w3.org/2000/svg" xmlns:xlink="http://www.w3.org/1999/xlink" x="0px" y="0px"
	 viewBox="0 0 49.1 45.8" style="enable-background:new 0 0 49.1 45.8;" xml:space="preserve">
<style type="text/css">
	.st0{fill:url(#SVGID_1_);}
	.st1{fill:url(#SVGID_2_);}
</style>
<g>
	<linearGradient id="SVGID_1_" gradientUnits="userSpaceOnUse" x1="18.9937" y1="26.0679" x2="30.0682" y2="26.0679">
		<stop  offset="0" style="stop-color:#FF4148"/>
		<stop  offset="1" style="stop-color:#FF793A"/>
	</linearGradient>
	<path class="st0" d="M24.5,20.5c-3.1,0-5.5,2.5-5.5,5.5c0,3.1,2.5,5.5,5.5,5.5s5.5-2.5,5.5-5.5C30.1,23,27.6,20.5,24.5,20.5z
		 M24.5,30c-2.2,0-4-1.8-4-4s1.8-4,4-4s4,1.8,4,4S26.7,30,24.5,30z"/>
	<linearGradient id="SVGID_2_" gradientUnits="userSpaceOnUse" x1="-1.818989e-12" y1="22.9219" x2="49.0629" y2="22.9219">
		<stop  offset="0" style="stop-color:#FF4148"/>
		<stop  offset="1" style="stop-color:#FF793A"/>
	</linearGradient>
	<path class="st1" d="M42.5,20.7c-1.7-1-3.6-1.6-5.6-1.7c0.8-1.8,1.2-3.7,1.2-5.6c0-5.7-4-11.4-9.3-13.4l-0.6,1.5
		c2.9,1.3,4.4,5,4.4,8c0,1-0.2,1.9-0.5,2.7c-2.3-1.3-4.9-1.9-7.5-1.9c-2.6,0-5.2,0.7-7.5,1.9c-0.3-0.8-0.5-1.8-0.5-2.7
		c0-3,1.5-6.7,4.4-8L20.2,0c-5.3,2-9.3,7.7-9.3,13.4c0,1.9,0.4,3.8,1.3,5.6c-2,0.2-3.9,0.8-5.6,1.7c-5.3,3-7.7,9-6.1,15L2,35.4
		c-0.5-3.2,1.1-6.3,3.9-7.9c0.9-0.5,1.9-0.8,2.8-1c0.2,5.3,2.9,10.1,7.4,12.9c-0.6,0.7-1.3,1.3-2.1,1.8c-2.8,1.6-6.4,1.3-9-0.7
		l-1,1.2c4.5,4.3,11.2,5.3,16.3,2.4c1.7-1,3.2-2.3,4.3-3.9c1.1,1.6,2.6,2.9,4.3,3.9c2.1,1.2,4.5,1.8,6.7,1.8c3.5,0,7-1.4,9.6-4.2
		l-1.1-1.2c-2.6,2.1-6.1,2.4-9,0.7c-0.8-0.5-1.5-1.1-2.1-1.8c4.4-2.8,7.2-7.6,7.4-12.9c1,0.1,1.9,0.5,2.8,1c2.8,1.6,4.3,4.7,3.9,7.9
		l1.5,0.3C50.2,29.7,47.7,23.7,42.5,20.7z M24.5,11.8c2.4,0,4.8,0.6,6.8,1.8c-0.3,0.5-0.6,0.9-1,1.3c-3.6-1.9-8.1-1.9-11.7,0
		c-0.4-0.4-0.7-0.8-1-1.3C19.8,12.4,22.1,11.8,24.5,11.8z M29.1,16c-1.3,0.9-2.9,1.4-4.5,1.4c-1.7,0-3.2-0.5-4.5-1.4
		C22.8,14.7,26.2,14.7,29.1,16z M10.3,26.5c0.5,0,1.1,0.1,1.6,0.2c0.2,4,2.3,7.8,5.7,10c-0.2,0.5-0.4,1-0.6,1.5
		C13,35.6,10.4,31.2,10.3,26.5z M17.9,35c-2.5-1.8-4.1-4.6-4.4-7.7c1.4,0.7,2.6,1.7,3.4,3.1C17.7,31.8,18.1,33.4,17.9,35z
		 M32.1,38.1c-0.3-0.5-0.5-1-0.6-1.5c0.6-0.4,1.2-0.8,1.7-1.3l-1.1-1.2c-0.3,0.3-0.6,0.5-0.9,0.8c-0.1-1.6,0.2-3.2,1-4.6
		c0.8-1.4,2-2.4,3.4-3.1c-0.2,2.1-1.1,4.1-2.4,5.7l1.2,1c1.7-2.1,2.7-4.7,2.8-7.3c0.5-0.1,1.1-0.2,1.6-0.2
		C38.6,31.2,36.1,35.6,32.1,38.1z M43.9,26.1c-4.6-2.6-10.5-1.1-13.1,3.5c-1.3,2.2-1.6,4.7-1,7.2c0.7,2.5,2.3,4.5,4.5,5.8
		c1.3,0.8,2.8,1.2,4.3,1.3c-2.9,0.8-6.1,0.4-9-1.2c-1.8-1-3.4-2.5-4.4-4.4l-0.7-1.2l-0.7,1.2c-1.1,1.8-2.6,3.3-4.4,4.4
		c-2.5,1.4-5.5,1.8-8.4,1.1c1.3-0.1,2.5-0.5,3.7-1.2c2.2-1.3,3.8-3.3,4.5-5.8c0.7-2.4,0.3-5-1-7.2c-2.7-4.5-8.5-6.1-13.1-3.5
		C3.9,26.9,2.8,27.8,2,29c0.8-2.9,2.7-5.3,5.4-6.9c1.8-1,3.9-1.6,6-1.6c0,0,0,0,0,0l1.4,0l-0.7-1.2c-1.1-1.8-1.6-3.9-1.6-5.9
		c0-2.9,1.2-5.9,3.2-8.2c-0.5,1.3-0.8,2.8-0.8,4.3c0,5.2,4.3,9.5,9.6,9.5s9.6-4.3,9.6-9.5c0-1.5-0.3-3-0.8-4.3
		c2,2.3,3.2,5.3,3.2,8.2c0,2.1-0.6,4.1-1.6,5.9l-0.7,1.2l1.4,0c0,0,0,0,0,0c2.1,0,4.2,0.5,6,1.6c2.7,1.5,4.6,4,5.4,6.9
		C46.3,27.8,45.2,26.9,43.9,26.1z"/>
</g>
</svg>
