<?xml version="1.0" encoding="utf-8"?>
<!-- Generator: Adobe Illustrator 22.1.0, SVG Export Plug-In . SVG Version: 6.00 Build 0)  -->
<svg version="1.1" id="Слой_1" xmlns="http://www.w3.org/2000/svg" xmlns:xlink="http://www.w3.org/1999/xlink" x="0px" y="0px"
	 viewBox="0 0 29.7 45.8" style="enable-background:new 0 0 29.7 45.8;" xml:space="preserve">
<style type="text/css">
	.st0{fill:url(#SVGID_1_);}
	.st1{fill:url(#SVGID_2_);}
</style>
<g>
	<linearGradient id="SVGID_1_" gradientUnits="userSpaceOnUse" x1="0.7296" y1="16.3416" x2="28.9353" y2="16.3416">
		<stop  offset="0" style="stop-color:#FF4148"/>
		<stop  offset="1" style="stop-color:#FF793A"/>
	</linearGradient>
	<path class="st0" d="M7.7,32.6c0.1,0,0.2,0,0.2,0c0,0,0,0,0,0c0.4,0,0.7-0.3,0.7-0.7c0-0.2-0.1-0.3-0.2-0.5c-0.9-1.6-1.2-3-0.9-3.9
		c0.1-0.3,0.3-0.6,0.5-0.9c0.6,1.6,1.4,2.4,2.6,2.4c1.2,0,2.3-1,3-1.8c1.5-1.8,1.9-4.4,1.9-6.3c0.8,0.7,1.3,1.5,1.5,2.3
		c0.1,0.7,0,1.2-0.3,1.8c-0.7,1.1-1,2.1-0.7,3c0.2,0.6,0.5,1,1,1.2c0.3,0.1,0.6,0.2,1,0.2c0.9,0,2.2-0.5,3-1.7
		c0.5-0.8,0.9-2.1,0.6-4c0.5,0.6,0.8,1.2,0.9,1.8c0.4,2.2-1.5,4.5-2.3,5.4l-0.1,0.1c-0.2,0.2-0.2,0.5-0.1,0.8
		c0.1,0.3,0.4,0.4,0.7,0.4c5.7-0.1,8.2-8.1,8.2-11.1c0-5.6-4.2-11.8-8.5-12.5c-0.3-0.1-0.7,0.1-0.8,0.5c-0.1,0.3,0,0.7,0.3,0.9
		c0.8,0.6,1.5,2.8,1,4.6c-0.3,1-0.9,1.6-1.7,1.7c-0.1,0-0.2,0-0.3,0c-0.6,0-1.4-0.1-2-0.8c-0.7-0.7-1-2-0.9-3.7
		c0.1-1.4,0.5-2.5,0.9-3.5c0.8-2.2,1.6-4.2-1.8-8.3C14.8,0,14.5-0.1,14.2,0c-0.3,0.1-0.5,0.4-0.5,0.7c0,3.8-0.8,4.5-2,5.6
		C10.9,7.1,9.9,8,8.9,10c-1.2,2.3-1.6,6,0.2,10.2c-1-0.3-2-0.9-2.5-1.8c-0.9-1.3-0.9-3.1-0.1-5.1c0.1-0.3,0-0.7-0.2-0.9
		c-0.3-0.2-0.6-0.2-0.9,0c-3.5,2.5-5.2,6.9-4.5,11.5C1.6,28.2,4.2,31.5,7.7,32.6z M4.4,15.3c-0.1,1.4,0.2,2.8,0.9,3.9
		c1.1,1.6,3,2.6,5,2.6c0.3,0,0.5-0.1,0.6-0.4c0.1-0.2,0.1-0.5,0-0.7c-2.3-4.2-1.9-8-0.8-10.1c0.9-1.7,1.7-2.5,2.5-3.2
		c1.2-1.1,2-2.1,2.3-4.6c1.5,2.3,1,3.5,0.4,5.2c-0.4,1.1-0.8,2.3-0.9,3.9c-0.1,2.1,0.3,3.7,1.3,4.8c1,1,2.2,1.2,3.1,1.2
		c0.1,0,0.2,0,0.4,0c1.5-0.1,2.6-1.1,3-2.7c0.3-1.2,0.3-2.7-0.1-4c2.7,1.7,5.3,5.9,5.3,10.2c0,2.4-1.7,7.7-4.9,9.2
		c0.9-1.3,1.8-3.2,1.4-5.1c-0.3-1.7-1.5-3.1-3.5-4.3c-0.1-0.1-0.2-0.1-0.4-0.1c-0.2,0-0.4,0.1-0.5,0.2c-0.2,0.2-0.3,0.6-0.2,0.9
		c0.9,2.1,1.1,3.8,0.3,4.9c-0.5,0.7-1.2,1.1-1.8,1.1c-0.2,0-0.3,0-0.3-0.1c-0.1-0.1-0.2-0.2-0.3-0.3c-0.1-0.4,0.1-1.1,0.6-1.8
		c0.6-0.9,0.7-1.9,0.5-2.9c-0.4-1.6-1.6-3.1-3.6-4.3c-0.3-0.2-0.6-0.1-0.9,0.1c-0.2,0.2-0.3,0.6-0.2,0.9c0.5,1.2,0.4,4.7-1.2,6.7
		c-0.7,0.8-1.4,1.3-1.9,1.3c-0.8,0-1.2-1.4-1.4-2.3c-0.1-0.2-0.2-0.4-0.4-0.5c-0.2-0.1-0.4-0.1-0.6,0c-1,0.5-1.7,1.3-2,2.3
		c-0.3,1-0.1,2.2,0.2,3.2c-2.1-1.4-3.5-3.8-4-6.7C1.9,20.5,2.6,17.5,4.4,15.3z"/>
	<linearGradient id="SVGID_2_" gradientUnits="userSpaceOnUse" x1="-9.094947e-13" y1="39.304" x2="29.6653" y2="39.304">
		<stop  offset="0" style="stop-color:#FF4148"/>
		<stop  offset="1" style="stop-color:#FF793A"/>
	</linearGradient>
	<path class="st1" d="M0.1,43.1l0.3,1.1c0.3,1,1.2,1.6,2.2,1.6c0.2,0,0.4,0,0.7-0.1l11.5-3.4l11.6,3.4c0.2,0.1,0.4,0.1,0.7,0.1
		c1,0,1.9-0.7,2.2-1.6l0.3-1.1c0.4-1.2-0.3-2.5-1.5-2.9l-3.1-0.9l3.1-0.9c1.2-0.4,1.9-1.6,1.5-2.9l-0.3-1.1c-0.3-1-1.2-1.6-2.2-1.6
		c-0.2,0-0.4,0-0.7,0.1l-11.6,3.4L3.3,32.9c-0.2-0.1-0.4-0.1-0.7-0.1c-1,0-1.9,0.7-2.2,1.6l-0.3,1.1c-0.4,1.2,0.3,2.5,1.5,2.9
		l3.1,0.9l-3.1,0.9C0.4,40.6-0.3,41.9,0.1,43.1z M26.8,34.3c0.4-0.1,0.9,0.1,1,0.6l0.3,1.1c0.1,0.4-0.1,0.9-0.6,1l-5.3,1.6l-4.9-1.5
		L26.8,34.3z M1.5,35.9l0.3-1.1c0.1-0.3,0.4-0.6,0.8-0.6c0.1,0,0.2,0,0.2,0l11.8,3.5c0,0,0,0,0,0l7.5,2.2c0,0,0,0,0,0l5.5,1.6
		c0.4,0.1,0.7,0.6,0.6,1l-0.3,1.1c-0.1,0.4-0.6,0.7-1,0.6L15,40.8l0,0l-0.5-0.1L2.1,37C1.6,36.8,1.4,36.4,1.5,35.9z M2.1,41.6
		l5.3-1.6l3.3,1l1.6,0.5l-9.4,2.8c-0.1,0-0.2,0-0.2,0c-0.4,0-0.7-0.2-0.8-0.6l-0.3-1.1C1.4,42.2,1.6,41.8,2.1,41.6z"/>
</g>
</svg>
