<?xml version="1.0" encoding="utf-8"?>
<!-- Generator: Adobe Illustrator 22.1.0, SVG Export Plug-In . SVG Version: 6.00 Build 0)  -->
<svg version="1.1" xmlns="http://www.w3.org/2000/svg" xmlns:xlink="http://www.w3.org/1999/xlink" x="0px" y="0px"
	 viewBox="0 0 190.6 41.9" style="enable-background:new 0 0 190.6 41.9;" xml:space="preserve">
<style type="text/css">
	.st0{fill:#201600;}
	.st1{fill:url(#SVGID_1_);}
	.st2{fill:#020202;}
	.st3{fill:#171717;}
</style>
<g id="Слой_1">
	<g>
		<path class="st0" d="M98.2,24.2c0,2.2-1.9,3.7-4.9,3.7c-1.9,0-3.4-0.4-4.5-0.9c-0.3-0.1-0.5-0.4-0.5-0.8c0-0.4,0.3-0.8,0.8-0.8
			c0.1,0,0.2,0,0.4,0.1c0.9,0.4,2.1,0.8,3.8,0.8c1.9,0,3.3-0.5,3.3-2.2c0-2.8-8.1-1.3-8.1-6c0-2.1,1.7-3.9,4.9-3.9
			c1.5,0,2.8,0.2,3.8,0.6c0.3,0.1,0.5,0.3,0.5,0.8c0,0.4-0.3,0.8-0.8,0.8c-0.1,0-0.2,0-0.3-0.1c-0.9-0.3-1.9-0.5-3.1-0.5
			c-1.9,0-3.4,0.7-3.4,2.2C90.1,21.3,98.2,19.2,98.2,24.2z"/>
		<path class="st0" d="M109.7,15.2c0,0.5-0.4,0.8-0.8,0.8H105V27c0,0.5-0.4,0.9-0.9,0.9c-0.5,0-0.9-0.4-0.9-0.9V16h-3.9
			c-0.5,0-0.8-0.3-0.8-0.8s0.3-0.8,0.8-0.8h9.5C109.3,14.4,109.7,14.8,109.7,15.2z"/>
		<path class="st0" d="M121.2,26.9c0,0.5-0.4,0.8-0.8,0.8h-7.6c-0.5,0-0.9-0.4-0.9-0.9V15.3c0-0.5,0.4-0.9,0.9-0.9h7.6
			c0.5,0,0.8,0.4,0.8,0.8s-0.4,0.8-0.8,0.8h-6.8v4.2h6.1c0.5,0,0.8,0.4,0.8,0.8s-0.4,0.8-0.8,0.8h-6.1v4.2h6.8
			C120.8,26.1,121.2,26.5,121.2,26.9z"/>
		<path class="st0" d="M135,27c0,0.5-0.3,0.9-0.9,0.9c-0.4,0-0.7-0.2-0.8-0.5l-1.2-3h-6.5l-1.2,3c-0.2,0.3-0.5,0.5-0.8,0.5
			c-0.5,0-0.9-0.4-0.9-0.9c0-0.1,0-0.2,0.1-0.4l4.9-11.5c0.2-0.4,0.5-0.8,1.1-0.8h0.2c0.6,0,0.9,0.4,1.1,0.8l4.9,11.5
			C134.9,26.7,135,26.9,135,27z M131.4,22.7l-2.6-6.2l-2.6,6.2H131.4z"/>
		<path class="st0" d="M152,15.6V27c0,0.5-0.4,0.9-0.9,0.9c-0.5,0-0.9-0.4-0.9-0.9V16.1L145.9,27c-0.2,0.5-0.7,0.8-1.2,0.8
			c-0.6,0-1-0.3-1.2-0.8L139,16.1V27c0,0.5-0.4,0.9-0.9,0.9s-0.9-0.4-0.9-0.9V15.6c0-0.7,0.6-1.3,1.2-1.3h0.6c0.5,0,1,0.3,1.2,0.8
			l4.3,10.8l4.3-10.8c0.2-0.5,0.6-0.8,1.2-0.8h0.6C151.5,14.3,152,14.9,152,15.6z"/>
		<path class="st0" d="M165.6,18.7c0,2-1.2,4.2-5.1,4.2h-3.5V27c0,0.5-0.4,0.9-0.9,0.9c-0.5,0-0.9-0.4-0.9-0.9V15.3
			c0-0.5,0.4-0.9,0.9-0.9h4.3C164.4,14.4,165.6,16.6,165.6,18.7z M163.9,18.7c0-1.2-0.7-2.6-3.5-2.6h-3.3v5.2h3.3
			C163.2,21.2,163.9,19.9,163.9,18.7z"/>
		<path class="st0" d="M178.2,27c0,0.5-0.3,0.9-0.9,0.9c-0.4,0-0.7-0.2-0.8-0.5l-1.2-3h-6.5l-1.2,3c-0.2,0.3-0.5,0.5-0.8,0.5
			c-0.5,0-0.9-0.4-0.9-0.9c0-0.1,0-0.2,0.1-0.4l4.9-11.5c0.2-0.4,0.5-0.8,1.1-0.8h0.2c0.6,0,0.9,0.4,1.1,0.8l4.9,11.5
			C178.2,26.7,178.2,26.9,178.2,27z M174.7,22.7l-2.6-6.2l-2.6,6.2H174.7z"/>
		<path class="st0" d="M187.6,14.8c0.2-0.3,0.4-0.4,0.8-0.4c0.5,0,0.9,0.4,0.8,0.9c0,0.2-0.1,0.4-0.2,0.5l-4.6,6.4V27
			c0,0.5-0.4,0.9-0.9,0.9c-0.5,0-0.9-0.4-0.9-0.9v-4.9l-4.6-6.4c-0.1-0.2-0.2-0.3-0.2-0.5c0-0.5,0.3-0.9,0.8-0.9
			c0.3,0,0.6,0.2,0.8,0.4l4,5.8L187.6,14.8z"/>
	</g>
</g>
<g id="Слой_2">
	<linearGradient id="SVGID_1_" gradientUnits="userSpaceOnUse" x1="0" y1="20.9744" x2="78.9057" y2="20.9744">
		<stop  offset="8.421053e-02" style="stop-color:#FF4547"/>
		<stop  offset="1" style="stop-color:#FF6E3D"/>
	</linearGradient>
	<path class="st1" d="M58.1,41.9c-0.2,0-0.5,0-0.7,0c-1.2,0-2.2-1.1-2.2-2.3c0-1.2,1.1-2.2,2.3-2.2c4.4,0.2,8.5-1.4,11.7-4.4
		c3.2-3,5-7,5.2-11.4c0.3-9-6.8-16.6-15.8-16.9c-8.8-0.3-16.2,6.4-16.9,15.2c0,0.1-0.1,1.9-0.1,2.1C41.1,33,31.9,41.7,20.9,41.7
		C9.4,41.7,0,32.4,0,20.9S9.4,0,20.9,0c1.2,0,2.3,1,2.3,2.3s-1,2.3-2.3,2.3c-9,0-16.4,7.3-16.4,16.4s7.3,16.4,16.4,16.4
		c8.7,0,15.9-6.8,16.3-15.5c0-0.2,0.1-2,0.1-2.1C38.1,8.4,47.5-0.1,58.8,0.3c11.5,0.4,20.5,10.1,20.1,21.6
		c-0.2,5.6-2.5,10.7-6.6,14.5C68.4,40,63.4,41.9,58.1,41.9z"/>
	<g>
		<g>
			<circle class="st2" cx="58.1" cy="15.8" r="2.3"/>
			<circle class="st2" cx="58.1" cy="26.7" r="2.3"/>
		</g>
		<g>
			<circle class="st2" cx="52.7" cy="21.2" r="2.3"/>
			<circle class="st2" cx="63.6" cy="21.2" r="2.3"/>
		</g>
	</g>
	<path class="st3" d="M25.6,18.9c1.4,0,2.4,1.1,2.4,2.4l0,0c0,1.4-1.1,2.4-2.4,2.4H15.4c-1.4,0-2.4-1.1-2.4-2.4l0,0
		c0-1.4,1.1-2.4,2.4-2.4H25.6z"/>
	<path class="st3" d="M18,16.4c0-1.4,1.1-2.4,2.4-2.4l0,0c1.4,0,2.4,1.1,2.4,2.4v10.1c0,1.4-1.1,2.4-2.4,2.4l0,0
		c-1.4,0-2.4-1.1-2.4-2.4V16.4z"/>
</g>
</svg>
