<svg xmlns="http://www.w3.org/2000/svg" viewBox="0 0 34.2 34.22"><defs><linearGradient id="a" y1="791.5" x2="1" y2="791.5" gradientTransform="matrix(34.2 0 0 -34.22 0 27103.03)" gradientUnits="userSpaceOnUse"><stop offset="0" stop-color="#ff4148"/><stop offset="1" stop-color="#ff793a"/></linearGradient></defs><title>Ресурс 1</title><path d="M33.17 14.71L31 16.06a14.49 14.49 0 0 1 0 2.65l2 1.35a2.15 2.15 0 0 1 .81 2.65l-1.22 2.84a2.14 2.14 0 0 1-2 1.3 2 2 0 0 1-.5-.06l-2.49-.6A13.59 13.59 0 0 1 25.85 28l.54 2.48a2.15 2.15 0 0 1-1.3 2.45l-2.89 1.16a2 2 0 0 1-.8.15 2.17 2.17 0 0 1-1.84-1L18.24 31a13.78 13.78 0 0 1-2.65 0l-1.37 2.14a2.16 2.16 0 0 1-1.81 1 2.1 2.1 0 0 1-.84-.17l-2.85-1.24a2.15 2.15 0 0 1-1.24-2.48l.6-2.47a14.28 14.28 0 0 1-1.85-1.9l-2.48.54a2.08 2.08 0 0 1-.46 0 2.15 2.15 0 0 1-2-1.35L.13 22.23A2.2 2.2 0 0 1 1 19.62l2.2-1.32a13.83 13.83 0 0 1 0-2.65l-2.11-1.38a2.15 2.15 0 0 1-.81-2.65L1.5 8.76a2.14 2.14 0 0 1 2-1.3 2 2 0 0 1 .5.06l2.47.6a13.25 13.25 0 0 1 2-1.91l-.59-2.44a2.15 2.15 0 0 1 1.3-2.45L12.07.16a2 2 0 0 1 .8-.16 2.17 2.17 0 0 1 1.84 1l1.35 2.19a14.38 14.38 0 0 1 2.64 0L20 1.14a2.16 2.16 0 0 1 2.68-.83l2.84 1.22A2.14 2.14 0 0 1 26.76 4l-.61 2.5A13.62 13.62 0 0 1 28 8.41l2.44-.53a2.06 2.06 0 0 1 .46-.05 2.14 2.14 0 0 1 2 1.36l1.1 2.88a2.14 2.14 0 0 1-.87 2.64zm-.91-1.93l-1.15-2.89a.23.23 0 0 0-.22-.15h-.06l-3 .66a.94.94 0 0 1-1-.37 11.89 11.89 0 0 0-2.32-2.41 1 1 0 0 1-.34-1l.75-3.09a.23.23 0 0 0-.14-.27l-2.86-1.19a.23.23 0 0 0-.28.09L20 4.8a1 1 0 0 1-1 .44 12.07 12.07 0 0 0-3.35-.06 1 1 0 0 1-.94-.45L13.08 2a.26.26 0 0 0-.21-.11h-.09L9.89 3.08a.24.24 0 0 0-.14.28l.66 3a1 1 0 0 1-.38 1 11.21 11.21 0 0 0-2.46 2.4.94.94 0 0 1-1 .35l-3.05-.73h-.05a.23.23 0 0 0-.21.14L2 12.36a.24.24 0 0 0 .09.29l2.64 1.7a1 1 0 0 1 .43 1 11.59 11.59 0 0 0 0 3.36 1 1 0 0 1-.45.94L2 21.24a.28.28 0 0 0-.11.31l1.15 2.86a.23.23 0 0 0 .22.15h.06l3.07-.67a1 1 0 0 1 1 .37 11.91 11.91 0 0 0 2.35 2.4 1 1 0 0 1 .35 1l-.74 3.06a.24.24 0 0 0 .13.27l2.85 1.22a.24.24 0 0 0 .29-.09l1.7-2.65a1 1 0 0 1 .95-.43 11.73 11.73 0 0 0 1.8.14 12.73 12.73 0 0 0 1.56-.1h.12a1 1 0 0 1 .82.46l1.64 2.69a.24.24 0 0 0 .2.11h.08l2.89-1.16a.24.24 0 0 0 .14-.27l-.67-3.07a1 1 0 0 1 .37-1 11.71 11.71 0 0 0 2.34-2.28.94.94 0 0 1 1-.34l3.08.74h.06a.23.23 0 0 0 .21-.14L32.09 22a.26.26 0 0 0-.08-.3L29.39 20a1 1 0 0 1-.39-1 12.17 12.17 0 0 0 0-3.33 1 1 0 0 1 .44-.93l2.71-1.66a.24.24 0 0 0 .1-.29zm-10.32 9.4a7 7 0 0 1-5 2h-.11A7.1 7.1 0 0 1 17 10h.11a7.1 7.1 0 0 1 4.87 12.15zm-4.89-10.24H17a5.18 5.18 0 0 0-.08 10.37H17a5.18 5.18 0 0 0 .08-10.37z" fill="url(#a)"/></svg>