<svg xmlns="http://www.w3.org/2000/svg" xmlns:xlink="http://www.w3.org/1999/xlink" viewBox="0 0 37.06 37.06"><defs><linearGradient id="a" y1="791.5" x2="1" y2="791.5" gradientTransform="matrix(37.06 0 0 -37.06 0 29353.1)" gradientUnits="userSpaceOnUse"><stop offset="0" stop-color="#ff4148"/><stop offset="1" stop-color="#ff793a"/></linearGradient><linearGradient id="b" x2="1" gradientTransform="matrix(14.01 0 0 -15.78 11.76 12505.87)" xlink:href="#a"/></defs><title>Ресурс 1</title><path d="M18.53 1v1A16.53 16.53 0 1 1 2 18.53 16.55 16.55 0 0 1 18.53 2V0a18.53 18.53 0 1 0 18.53 18.53A18.53 18.53 0 0 0 18.53 0v1z" fill="url(#a)"/><path d="M11.76 14.47a3.43 3.43 0 0 0 .24 1.21 2.77 2.77 0 0 0 .64 1 3.05 3.05 0 0 0 1 .68 3.84 3.84 0 0 0 1.44.25 3.8 3.8 0 0 0 1.44-.25 3.09 3.09 0 0 0 1-.68 2.8 2.8 0 0 0 .63-1 3.48 3.48 0 0 0 .21-1.22v-.81a3.53 3.53 0 0 0-.21-1.23 2.83 2.83 0 0 0-.63-1 3 3 0 0 0-1-.69 3.89 3.89 0 0 0-1.45-.25 3.77 3.77 0 0 0-1.43.25 3 3 0 0 0-1 .69 2.86 2.86 0 0 0-.64 1 3.47 3.47 0 0 0-.22 1.23v.81zm2-.81a1.76 1.76 0 0 1 .08-.53 1.27 1.27 0 0 1 .24-.45 1.19 1.19 0 0 1 .4-.31 1.3 1.3 0 0 1 .57-.11 1.38 1.38 0 0 1 .59.11 1.14 1.14 0 0 1 .41.31 1.37 1.37 0 0 1 .24.45 1.82 1.82 0 0 1 .08.53v.81a1.77 1.77 0 0 1-.08.53 1.33 1.33 0 0 1-.24.45 1.12 1.12 0 0 1-.4.31 1.45 1.45 0 0 1-1.15 0 1.23 1.23 0 0 1-.66-.76 1.72 1.72 0 0 1-.08-.53v-.81zm5.31 9.45a3.43 3.43 0 0 0 .22 1.22 2.9 2.9 0 0 0 .64 1A3.08 3.08 0 0 0 21 26a3.91 3.91 0 0 0 1.44.25 3.85 3.85 0 0 0 1.45-.25 3 3 0 0 0 1-.68 2.84 2.84 0 0 0 .63-1 3.47 3.47 0 0 0 .21-1.22v-.82a3.53 3.53 0 0 0-.21-1.22 2.76 2.76 0 0 0-.63-1 3.06 3.06 0 0 0-1-.68 3.85 3.85 0 0 0-1.45-.25 3.72 3.72 0 0 0-1.43.25 3.14 3.14 0 0 0-1 .68 2.8 2.8 0 0 0-.64 1 3.49 3.49 0 0 0-.22 1.22v.82zm2-.82a1.79 1.79 0 0 1 .08-.53 1.29 1.29 0 0 1 .24-.45 1.2 1.2 0 0 1 .41-.31 1.33 1.33 0 0 1 .57-.11A1.35 1.35 0 0 1 23 21a1.21 1.21 0 0 1 .41.31 1.33 1.33 0 0 1 .24.45 1.79 1.79 0 0 1 .08.53v.82a2.47 2.47 0 0 1-.06.53 1.18 1.18 0 0 1-.21.45 1.06 1.06 0 0 1-.4.31 1.47 1.47 0 0 1-.63.11 1.26 1.26 0 0 1-.55-.11 1.32 1.32 0 0 1-.42-.31 1.42 1.42 0 0 1-.27-.45 1.5 1.5 0 0 1-.1-.53v-.82zm2.08-9.38l-1.49-.8-7.49 12 1.48.8 7.49-12z" fill="url(#b)"/></svg>