<svg xmlns="http://www.w3.org/2000/svg" viewBox="0 0 31.27 33.63"><defs><linearGradient id="a" y1="791.5" x2="1" y2="791.5" gradientTransform="matrix(31.27 0 0 -33.63 -.02 26632.26)" gradientUnits="userSpaceOnUse"><stop offset="0" stop-color="#ff4148"/><stop offset="1" stop-color="#ff793a"/></linearGradient></defs><title>Ресурс 1</title><path d="M31.27 28.21L31.16 31a2.69 2.69 0 0 1-2.76 2.6l-3.28-.12a1 1 0 0 1-.69-.33l-.24-.26-2.31-.09a1.56 1.56 0 0 1-1.5-1.64v-1.24h-1.17a1.56 1.56 0 0 1-1.46-1.63v-1.24h-1.17a1.56 1.56 0 0 1-1.46-1.64l.09-2.47c-.2-.23-.55-.61-.92-1a2.62 2.62 0 0 1-3.11-.6l-.05-.07L11 21a10.47 10.47 0 0 1-8.39-3.58 10.56 10.56 0 0 1 1-14.83 10.44 10.44 0 0 1 14.78 1 10.49 10.49 0 0 1 2.3 9.35 2.76 2.76 0 0 1 0 2.64L31 27.5a1 1 0 0 1 .25.7zM18.7 16.43a1 1 0 0 1-.25-.58v-.26a1 1 0 0 1 .31-.82.71.71 0 0 0 0-1 1 1 0 0 1-.21-.95 8.48 8.48 0 0 0-1.76-7.93 8.41 8.41 0 0 0-11.9-.79 8.52 8.52 0 0 0-.8 12A8.35 8.35 0 0 0 9.9 19a8.47 8.47 0 0 0 1.62 0 1 1 0 0 1 1.05.59c0 .11 0 .42.49.53a.51.51 0 0 0 .47-.1l.14-.14a1 1 0 0 1 1.44 0s.48.49.94 1c1 1.08 1.21 1.33 1.19 1.81L17.15 25l1.72.06a1 1 0 0 1 .71.33 1 1 0 0 1 .27.73l-.07 1.8 1.72.08a1 1 0 0 1 .71.33 1 1 0 0 1 .27.73l-.07 1.8 2.27.09a1 1 0 0 1 .69.33l.24.26 2.85.11a.65.65 0 0 0 .65-.65l.09-2.41-10.5-12.16zm-7.61-5.21a3.54 3.54 0 0 1-5-.33 3.58 3.58 0 0 1 .33-5 3.55 3.55 0 0 1 5 .33 3.58 3.58 0 0 1-.34 5zm-1.2-3.7a1.51 1.51 0 0 0-2.15-.14 1.55 1.55 0 0 0-.14 2.17 1.51 1.51 0 0 0 1 .52 1.52 1.52 0 0 0 1.15-.37 1.55 1.55 0 0 0 .14-2.17zm17.17 22a1 1 0 0 1-1.43-.1l-8.38-9.62a1 1 0 0 1 1.53-1.33l8.38 9.62a1 1 0 0 1-.1 1.43z" fill="url(#a)"/></svg>