<svg xmlns="http://www.w3.org/2000/svg" xmlns:xlink="http://www.w3.org/1999/xlink" viewBox="0 0 36.87 31.17"><defs><linearGradient id="a" y1="791.5" x2="1" y2="791.5" gradientTransform="matrix(29.8 0 0 -22.01 0 17434.3)" gradientUnits="userSpaceOnUse"><stop offset="0" stop-color="#ff4148"/><stop offset="1" stop-color="#ff793a"/></linearGradient><linearGradient id="b" gradientTransform="matrix(29.76 0 0 -24.65 7.11 19530.9)" xlink:href="#a"/></defs><title>Ресурс 1</title><path d="M5.13 20v2h-4v-2h4M2 20.9H0V1.11h2V20.9M1.12 2V0h27.56v2H1.12m26.68-.88h2v4h-2v-4M1.12 22A1.11 1.11 0 0 1 0 20.9h1.12V22zM2 20.9h-.88V20a.89.89 0 0 1 .88.9zM1.12 2v-.88H2a.89.89 0 0 1-.88.88zm0-.88H0A1.11 1.11 0 0 1 1.12 0v1.12zM28.68 2a.88.88 0 0 1-.89-.88h.89V2zm1.12-.88h-1.12V0a1.11 1.11 0 0 1 1.12 1.12z" fill="url(#a)"/><path d="M26 28.88a4.84 4.84 0 0 1-.16-.88l-.18-2.17h9.21V8.52H9.11v17.31h13.17l.6.78A10.24 10.24 0 0 0 24.26 28a7.14 7.14 0 0 0 1.75.85m2.34 2.29a12 12 0 0 1-1.81-.12 8.8 8.8 0 0 1-3.43-1.41 12 12 0 0 1-1.8-1.81H8.22a1.11 1.11 0 0 1-1.11-1.11V7.63a1.11 1.11 0 0 1 1.11-1.11h27.54a1.11 1.11 0 0 1 1.12 1.11v19.09a1.12 1.12 0 0 1-1.12 1.11h-7.92c.09 1.11.86 2.24 3.07 3 .4.14-1 .35-2.59.35zm1.08-7z" fill="url(#b)"/></svg>