<?xml version="1.0" encoding="utf-8"?>
<!-- Generator: Adobe Illustrator 22.1.0, SVG Export Plug-In . SVG Version: 6.00 Build 0)  -->
<svg version="1.1" id="Слой_1" xmlns="http://www.w3.org/2000/svg" xmlns:xlink="http://www.w3.org/1999/xlink" x="0px" y="0px"
	 viewBox="0 0 39.9 45.8" style="enable-background:new 0 0 39.9 45.8;" xml:space="preserve">
<style type="text/css">
	.st0{fill:url(#SVGID_1_);}
</style>
<linearGradient id="SVGID_1_" gradientUnits="userSpaceOnUse" x1="0" y1="22.8761" x2="39.8839" y2="22.8761">
	<stop  offset="0" style="stop-color:#FF4148"/>
	<stop  offset="1" style="stop-color:#FF793A"/>
</linearGradient>
<path class="st0" d="M38.5,40.2c-0.3-0.4-0.7-0.6-1.2-0.6l-1.8-2.2c-0.2-0.3-0.7-0.3-0.9-0.1c-0.3,0.2-0.3,0.7-0.1,0.9L36,40
	l-1.7,1.5l-5.6-6.7l0.2-0.1l1.6-1.3l2.1,2.5c0.2,0.3,0.7,0.3,0.9,0.1c0.3-0.2,0.3-0.7,0.1-0.9l-2.1-2.5l2.3-1.9
	c0.6-0.5,0.6-1.4,0-1.9c-1.6-1.4-3.6-2-5.6-1.7l-2.9-4l13-13.3c1.5-1.5,2-3.7,1.4-5.7l-0.8-2.8c0,0,0,0,0,0
	c-0.2-0.5-0.6-0.8-1.1-0.9L34.8,0c-2.1-0.3-4.2,0.6-5.4,2.4l-9.5,13.2L10.5,2.4C9.2,0.7,7.2-0.2,5.1,0L2.2,0.4
	C1.7,0.5,1.3,0.8,1.1,1.3L0.3,4.1c-0.6,2-0.1,4.2,1.4,5.7l13,13.3l-2.9,4c-2-0.3-4,0.3-5.6,1.7c-0.6,0.5-0.5,1.4,0,1.9l2.3,1.9
	l-5.9,7.1c-0.4,0-0.9,0.2-1.2,0.6l-1,1.1c-0.6,0.7-0.5,1.8,0.2,2.5l1.9,1.6C3.2,46,4.3,45.9,5,45.1L5.9,44c0.3-0.3,0.4-0.8,0.4-1.3
	l5.9-7.1l2.3,1.9c0.6,0.5,1.4,0.3,1.8-0.3c1.1-1.8,1.3-3.9,0.7-5.8l2.9-3l2.9,3c-0.6,1.9-0.5,4,0.7,5.8c0.4,0.6,1.3,0.8,1.8,0.3
	l2.3-1.9l5.9,7.1c0,0.5,0.1,0.9,0.4,1.3l0.9,1.1c0.6,0.7,1.7,0.8,2.4,0.2l1.9-1.6c0.7-0.6,0.8-1.7,0.2-2.5L38.5,40.2z M30.5,3.2
	c0.9-1.3,2.5-2,4.1-1.8l2.1,0.3l-7.6,9.1c-0.2,0.3-0.2,0.7,0.1,1c0.3,0.2,0.7,0.2,0.9-0.1l7.6-9.1l0.6,2c0.5,1.5,0.1,3.2-1.1,4.4
	L24.5,22l-1.4-2l5-6c0.2-0.3,0.2-0.7-0.1-1c-0.3-0.2-0.7-0.2-1,0.1l-4.8,5.7l-1.5-2.1L30.5,3.2z M5.2,1.4c1.6-0.2,3.2,0.5,4.1,1.8
	C9.9,4,26.1,26.5,26.7,27.4c-0.5,0.2-0.9,0.4-1.3,0.7L3.2,1.6L5.2,1.4z M15.6,24l1.3,1.3l-2.4,2.8c-0.4-0.3-0.9-0.5-1.3-0.7L15.6,24
	z M4.9,43.1l-1,1.1c-0.1,0.2-0.4,0.2-0.6,0.1l-1.9-1.6c-0.2-0.1-0.2-0.4-0.1-0.6l1-1.1c0.1-0.2,0.4-0.2,0.6,0
	c1.1,0.9,0.8,0.7,1.9,1.6C5,42.7,5,43,4.9,43.1z M5.6,41.5C4.7,40.7,5,40.9,3.9,40l5.6-6.7l1.7,1.5L5.6,41.5z M15.3,36.5
	C15,36.2,7.5,30,7.2,29.6c2.1-1.8,5.2-1.8,7.2,0.1C16.2,31.5,16.6,34.3,15.3,36.5z M16.4,30.2c-0.2-0.4-0.6-0.8-0.9-1.2l2.3-2.7
	c0.1,0.1,1.1,1.1,1.2,1.3L16.4,30.2z M23.5,30.2C19.7,26.3,3.1,9.4,2.6,8.9C1.5,7.7,1.1,6,1.5,4.5l0.6-2L24.4,29
	C24,29.4,23.7,29.8,23.5,30.2z M24.6,36.5c-2.1-3.5,0.4-8.1,4.6-8.1c1.3,0,2.5,0.4,3.5,1.3C31,31.1,27.3,34.2,24.6,36.5z M38.4,42.7
	l-1.9,1.6c-0.2,0.1-0.4,0.1-0.6-0.1l-1-1.1c-0.1-0.2-0.1-0.4,0-0.6c1-0.8,0.5-0.4,1.9-1.6c0.1-0.1,0.2-0.1,0.3-0.1
	c0.1,0,0.2,0,0.3,0.1l1,1.1C38.6,42.3,38.6,42.6,38.4,42.7z"/>
</svg>
