<?xml version="1.0" encoding="utf-8"?>
<!-- Generator: Adobe Illustrator 22.1.0, SVG Export Plug-In . SVG Version: 6.00 Build 0)  -->
<svg version="1.1" id="Слой_1" xmlns="http://www.w3.org/2000/svg" xmlns:xlink="http://www.w3.org/1999/xlink" x="0px" y="0px"
	 viewBox="0 0 40.9 45.8" style="enable-background:new 0 0 40.9 45.8;" xml:space="preserve">
<style type="text/css">
	.st0{fill:url(#SVGID_1_);}
	.st1{fill:url(#SVGID_2_);}
	.st2{fill:url(#SVGID_3_);}
	.st3{fill:url(#SVGID_4_);}
	.st4{fill:url(#SVGID_5_);}
	.st5{fill:url(#SVGID_6_);}
	.st6{fill:url(#SVGID_7_);}
</style>
<g>
	<linearGradient id="SVGID_1_" gradientUnits="userSpaceOnUse" x1="9.094947e-13" y1="22.9219" x2="40.8516" y2="22.9219">
		<stop  offset="0" style="stop-color:#FF4148"/>
		<stop  offset="1" style="stop-color:#FF793A"/>
	</linearGradient>
	<path class="st0" d="M40.1,44.3h-8.6c0-0.2,0-0.3,0-0.5c0-1.9-1.6-3.5-3.5-3.5c-0.1,0-0.1,0-0.2,0c0.2-9.3,0.2-11,0.3-11.3
		c0.7-2.4,1.7-4.7,3.1-6.8l4.3-6.6c0.3-0.5,0.5-1,0.5-1.5c0-0.8-0.3-1.6-0.9-2.1c-0.6-0.5-1.3-0.8-2-0.7c-0.8,0-1.4,0.4-1.9,1
		l-1.8,2.1l2-6.2c0.1-0.3,0.2-0.6,0.2-0.9c0-1.2-0.7-2.3-1.8-2.8c-0.8-0.3-1.6-0.3-2.4,0c-0.8,0.3-1.4,1-1.6,1.8l-1.1,3.1l0.3-5.9
		c0-0.1,0-0.1,0-0.2c0-1.7-1.4-3.1-3.1-3.2c-1.7-0.1-3.2,1.3-3.3,3l-0.2,4l-0.4-2.9c-0.2-1.5-1.5-2.6-3-2.6c-0.2,0-0.4,0-0.6,0.1
		C12.5,2,11.5,3.4,11.7,5L13,16.6c0,0.2-0.1,0.3-0.2,0.4c-0.1,0-0.2,0.1-0.4,0c-1-0.8-2.3-1.8-3.3-2.6c-0.7-0.6-1.6-0.8-2.5-0.7
		C5.8,13.8,5,14.3,4.5,15l0,0.1c-0.5,0.7-0.7,1.6-0.5,2.5c0.2,0.9,0.7,1.6,1.4,2.1l0.3,0.2C7.5,21,9,22.6,10,24.5
		c0.4,0.8,1,1.4,1.7,1.9c0.6,0.4,1.1,1.1,1.2,1.9l0.2,11.8c0,0-0.1,0-0.1,0c-2.2,0-4,1.8-4,4c0,0,0,0.1,0,0.1H0.8
		c-0.4,0-0.8,0.4-0.8,0.8c0,0.4,0.4,0.8,0.8,0.8h39.3c0.4,0,0.8-0.4,0.8-0.8C40.9,44.6,40.5,44.3,40.1,44.3z M12.6,25.1
		c-0.5-0.3-0.9-0.8-1.2-1.4c-1.1-2.2-2.8-4-4.9-5.3l-0.3-0.2c-0.4-0.2-0.6-0.6-0.7-1.1c-0.1-0.4,0-0.9,0.3-1.3l0-0.1
		c0.3-0.4,0.7-0.6,1.1-0.7c0.5-0.1,0.9,0.1,1.3,0.3c1,0.8,2.2,1.8,3.3,2.6c0.2,0.1,0.9,0.5,1,0.5c0.7,0.3,1.5,0.4,2.4,0.6
		c3,0.6,6.2,1.3,6.4,5.8c0,0.4,0.4,0.7,0.8,0.7c0,0,0,0,0,0c0.4,0,0.8-0.4,0.7-0.8c-0.3-5.7-4.5-6.6-7.6-7.2
		c-0.3-0.1-0.6-0.1-0.8-0.2c0.2-0.3,0.3-0.7,0.2-1.2L13.2,4.8c-0.1-0.8,0.4-1.5,1.2-1.6c0.1,0,0.2,0,0.3,0c0.7,0,1.4,0.5,1.5,1.3
		l1.3,8.2c0.1,0.5,0.5,0.9,1,0.9c0.5,0,0.9-0.4,1-1L20,3.1c0.1-0.9,0.8-1.6,1.7-1.6c0.9,0,1.6,0.8,1.6,1.6c0,0,0,0.1,0,0.1L22.8,12
		c0,0.6,0.4,1.1,1,1.2c0.6,0.1,1.2-0.2,1.4-0.8l2-5.7c0.1-0.4,0.4-0.7,0.8-0.9c0.4-0.2,0.8-0.2,1.2,0c0.5,0.2,0.9,0.7,0.9,1.3
		c0,0.2,0,0.3-0.1,0.4l-2.5,7.5c-0.2,0.6,0,1.2,0.6,1.5c0.5,0.3,1.2,0.2,1.6-0.3l2.7-3.2c0.2-0.3,0.5-0.4,0.9-0.4
		c0.3,0,0.6,0.1,0.9,0.3c0.3,0.2,0.4,0.6,0.4,0.9c0,0.2-0.1,0.5-0.2,0.7l-4.3,6.6c-1.5,2.2-2.6,4.7-3.3,7.3c0,0.2-0.1,0.5-0.3,12.1
		c-0.2,0.1-0.5,0.3-0.7,0.5c-0.7-0.7-1.8-1.1-2.8-1.1c-1.2,0-2.3,0.5-3,1.4c-0.5-0.3-1-0.5-1.6-0.5c-0.7,0-1.4,0.2-1.9,0.7
		c-0.4-0.5-0.9-0.9-1.5-1.2l-0.2-12.2c0,0,0-0.1,0-0.1C14.3,26.9,13.7,25.8,12.6,25.1z M29.9,44.3H10.5c0,0,0-0.1,0-0.1
		c0-1.4,1.1-2.5,2.5-2.5c1,0,2,0.6,2.3,1.6c0.1,0.3,0.4,0.5,0.7,0.5c0.3,0,0.6-0.1,0.7-0.4c0.3-0.5,0.8-0.8,1.4-0.8
		c0.5,0,0.9,0.2,1.2,0.5c0.2,0.2,0.4,0.3,0.7,0.3c0.3,0,0.5-0.2,0.6-0.4c0.4-0.8,1.3-1.3,2.2-1.3c0.9,0,1.7,0.5,2.1,1.2
		c0.1,0.2,0.4,0.4,0.7,0.4c0.3,0,0.5-0.2,0.7-0.4c0.3-0.6,1-1.1,1.7-1.1c1.1,0,2,0.9,2,2C30,44,29.9,44.1,29.9,44.3z"/>
	<linearGradient id="SVGID_2_" gradientUnits="userSpaceOnUse" x1="30.4407" y1="37.4804" x2="35.1072" y2="37.4804">
		<stop  offset="0" style="stop-color:#FF4148"/>
		<stop  offset="1" style="stop-color:#FF793A"/>
	</linearGradient>
	<path class="st1" d="M32.8,39.8c1.3,0,2.3-1,2.3-2.3c0-1.3-1-2.3-2.3-2.3c-1.3,0-2.3,1-2.3,2.3S31.5,39.8,32.8,39.8z M32.8,36.7
		c0.4,0,0.8,0.3,0.8,0.8c0,0.4-0.3,0.8-0.8,0.8c-0.4,0-0.8-0.3-0.8-0.8C32,37.1,32.4,36.7,32.8,36.7z"/>
	<linearGradient id="SVGID_3_" gradientUnits="userSpaceOnUse" x1="5.8238" y1="33.6397" x2="11.1194" y2="33.6397">
		<stop  offset="0" style="stop-color:#FF4148"/>
		<stop  offset="1" style="stop-color:#FF793A"/>
	</linearGradient>
	<path class="st2" d="M8.5,36.3c1.5,0,2.6-1.2,2.6-2.6c0-1.5-1.2-2.6-2.6-2.6s-2.6,1.2-2.6,2.6C5.8,35.1,7,36.3,8.5,36.3z M8.5,32.6
		c0.6,0,1.1,0.5,1.1,1.1c0,0.6-0.5,1.1-1.1,1.1s-1.1-0.5-1.1-1.1C7.4,33,7.9,32.6,8.5,32.6z"/>
	<linearGradient id="SVGID_4_" gradientUnits="userSpaceOnUse" x1="34.7405" y1="40.2325" x2="36.3136" y2="40.2325">
		<stop  offset="0" style="stop-color:#FF4148"/>
		<stop  offset="1" style="stop-color:#FF793A"/>
	</linearGradient>
	<circle class="st3" cx="35.5" cy="40.2" r="0.8"/>
	<linearGradient id="SVGID_5_" gradientUnits="userSpaceOnUse" x1="29.3925" y1="28.0682" x2="30.9655" y2="28.0682">
		<stop  offset="0" style="stop-color:#FF4148"/>
		<stop  offset="1" style="stop-color:#FF793A"/>
	</linearGradient>
	<path class="st4" d="M30.2,27.3c-0.4,0-0.8,0.4-0.8,0.8s0.4,0.8,0.8,0.8s0.8-0.4,0.8-0.8S30.6,27.3,30.2,27.3z"/>
	<linearGradient id="SVGID_6_" gradientUnits="userSpaceOnUse" x1="4.959" y1="38.24" x2="6.5321" y2="38.24">
		<stop  offset="0" style="stop-color:#FF4148"/>
		<stop  offset="1" style="stop-color:#FF793A"/>
	</linearGradient>
	<circle class="st5" cx="5.7" cy="38.2" r="0.8"/>
	<linearGradient id="SVGID_7_" gradientUnits="userSpaceOnUse" x1="6.4271" y1="25.2368" x2="8.0001" y2="25.2368">
		<stop  offset="0" style="stop-color:#FF4148"/>
		<stop  offset="1" style="stop-color:#FF793A"/>
	</linearGradient>
	<path class="st6" d="M7.2,26C7.6,26,8,25.7,8,25.2s-0.4-0.8-0.8-0.8s-0.8,0.4-0.8,0.8S6.8,26,7.2,26z"/>
</g>
</svg>
